<?xml version="1.0" encoding="UTF-8" standalone="no"?>
<!-- Created with Inkscape (http://www.inkscape.org/) -->

<svg
   width="9.999999mm"
   height="10mm"
   viewBox="0 0 9.999999 9.9999999"
   version="1.1"
   id="svg5"
   inkscape:version="1.2.1 (9c6d41e410, 2022-07-14)"
   sodipodi:docname="icon.svg"
   inkscape:export-filename="icon.png"
   inkscape:export-xdpi="1300.48"
   inkscape:export-ydpi="1300.48"
   xmlns:inkscape="http://www.inkscape.org/namespaces/inkscape"
   xmlns:sodipodi="http://sodipodi.sourceforge.net/DTD/sodipodi-0.dtd"
   xmlns:xlink="http://www.w3.org/1999/xlink"
   xmlns="http://www.w3.org/2000/svg"
   xmlns:svg="http://www.w3.org/2000/svg">
  <sodipodi:namedview
     id="namedview7"
     pagecolor="#ffffff"
     bordercolor="#000000"
     borderopacity="0.25"
     inkscape:showpageshadow="2"
     inkscape:pageopacity="0.0"
     inkscape:pagecheckerboard="0"
     inkscape:deskcolor="#d1d1d1"
     inkscape:document-units="mm"
     showgrid="false"
     inkscape:zoom="10.610411"
     inkscape:cx="0.51835881"
     inkscape:cy="23.043405"
     inkscape:window-width="1920"
     inkscape:window-height="991"
     inkscape:window-x="-9"
     inkscape:window-y="-9"
     inkscape:window-maximized="1"
     inkscape:current-layer="layer1" />
  <defs
     id="defs2">
    <linearGradient
       inkscape:collect="always"
       id="linearGradient6163">
      <stop
         style="stop-color:#373599;stop-opacity:1;"
         offset="0"
         id="stop6159" />
      <stop
         style="stop-color:#4a97b8;stop-opacity:1;"
         offset="1"
         id="stop6161" />
    </linearGradient>
    <linearGradient
       inkscape:collect="always"
       xlink:href="#linearGradient6163"
       id="linearGradient6165"
       x1="54.148918"
       y1="99.620537"
       x2="54.351646"
       y2="108.22295"
       gradientUnits="userSpaceOnUse"
       gradientTransform="matrix(1.0800434,0,0,1.1329558,-4.489636,-13.523029)" />
    <filter
       style="color-interpolation-filters:sRGB;"
       inkscape:label="Drop Shadow"
       id="filter907"
       x="-0.072656249"
       y="-0.077499998"
       width="1.1957619"
       height="1.2088127">
      <feFlood
         flood-opacity="0.490196"
         flood-color="rgb(0,0,0)"
         result="flood"
         id="feFlood897" />
      <feComposite
         in="flood"
         in2="SourceGraphic"
         operator="in"
         result="composite1"
         id="feComposite899" />
      <feGaussianBlur
         in="composite1"
         stdDeviation="0.24003022"
         result="blur"
         id="feGaussianBlur901" />
      <feOffset
         dx="0.40000000000000002"
         dy="0.40000000000000002"
         result="offset"
         id="feOffset903" />
      <feComposite
         in="SourceGraphic"
         in2="offset"
         operator="over"
         result="fbSourceGraphic"
         id="feComposite905" />
    </filter>
    <filter
       style="color-interpolation-filters:sRGB;"
       inkscape:label="Drop Shadow"
       id="filter919"
       x="-0.094214398"
       y="-0.12107923"
       width="1.2945618"
       height="1.3785548">
      <feFlood
         flood-opacity="0.490196"
         flood-color="rgb(0,0,0)"
         result="flood"
         id="feFlood909" />
      <feComposite
         in="flood"
         in2="SourceGraphic"
         operator="in"
         result="composite1"
         id="feComposite911" />
      <feGaussianBlur
         in="composite1"
         stdDeviation="0.14795025"
         result="blur"
         id="feGaussianBlur913" />
      <feOffset
         dx="0.40000000000000002"
         dy="0.40000000000000002"
         result="offset"
         id="feOffset915" />
      <feComposite
         in="SourceGraphic"
         in2="offset"
         operator="over"
         result="fbSourceGraphic"
         id="feComposite917" />
    </filter>
  </defs>
  <g
     inkscape:label="Calque 1"
     inkscape:groupmode="layer"
     id="layer1"
     transform="translate(-49.091668,-99.165021)"
     style="display:inline">
    <rect
       style="fill:url(#linearGradient6165);fill-opacity:1;stroke:#000000;stroke-width:0.139379;stroke-dasharray:none;stroke-opacity:1"
       id="rect5637"
       width="9.8606205"
       height="9.8606215"
       x="49.161358"
       y="99.234711"
       ry="0.96616846" />
    <g
       aria-label="-&gt;"
       id="text236"
       style="font-weight:bold;font-size:5.29167px;font-family:Consolas;-inkscape-font-specification:'Consolas, Bold';display:inline;mix-blend-mode:normal;fill:#e5c41a;fill-opacity:1;stroke:none;stroke-width:0.151391;stroke-dasharray:none;stroke-opacity:1;filter:url(#filter919)"
       inkscape:highlight-color="#5185d8"
       inkscape:label="ruleText"
       transform="matrix(1.0014599,0,0,0.98023826,-0.2212938,1.8778862)">
      <path
         d="m 52.429972,104.62592 v -0.56069 h 1.607138 v 0.56069 z"
         id="path6167"
         sodipodi:nodetypes="ccccc"
         style="display:inline;fill:#e5c41a;fill-opacity:1;stroke:none;stroke-width:0.151391;stroke-dasharray:none;stroke-opacity:1" />
      <path
         d="m 54.457333,102.84444 1.741496,1.46502 -1.741496,1.46761 -0.400493,-0.40824 1.278992,-1.0542 -1.278992,-1.06195 z"
         id="path6169"
         sodipodi:nodetypes="ccccccc"
         style="display:inline;fill:#e5c41a;fill-opacity:1;stroke:none;stroke-width:0.151391;stroke-dasharray:none;stroke-opacity:1" />
    </g>
    <g
       aria-label="{}"
       id="text3332"
       style="font-size:8.11903px;font-family:'Lucida Console';-inkscape-font-specification:'Lucida Console, Normal';display:inline;opacity:1;fill:#b92a4b;stroke-width:0.121785;filter:url(#filter907)"
       inkscape:label="sourcefileText">
      <path
         d="m 53.300467,100.43667 v 0.58673 h -0.313186 q -0.590691,0 -0.832517,0.14668 -0.241827,0.14272 -0.241827,0.49951 0,0.13082 0.03964,0.36472 l 0.09118,0.55105 q 0.04757,0.27751 0.04757,0.45987 0,0.85234 -0.784946,1.10606 0.780981,0.25768 0.780981,1.12191 0,0.1784 -0.04361,0.44798 l -0.09118,0.54708 q -0.03964,0.23786 -0.03964,0.36869 0,0.35679 0.241827,0.49951 0.241826,0.14668 0.832517,0.14668 h 0.313186 v 0.58672 H 52.86835 q -0.808731,0 -1.240848,-0.29336 -0.428152,-0.29336 -0.428152,-0.84837 0,-0.23787 0.0555,-0.53519 l 0.134788,-0.70566 q 0.02775,-0.15858 0.02775,-0.31319 0,-0.72944 -0.888019,-0.72944 h -0.360758 v -0.58673 h 0.360758 q 0.888019,0 0.888019,-0.72548 0,-0.15461 -0.02775,-0.31318 l -0.134788,-0.70566 q -0.0555,-0.29733 -0.0555,-0.53519 0,-1.14174 1.669,-1.14174 z"
         id="path4747" />
      <path
         d="m 54.965502,107.86986 v -0.58672 h 0.309221 q 0.594655,0 0.836482,-0.14668 0.241826,-0.14272 0.241826,-0.49951 0,-0.13083 -0.03964,-0.36869 l -0.09118,-0.54708 q -0.04757,-0.27751 -0.04757,-0.45987 0,-0.85234 0.780981,-1.11002 -0.780981,-0.25372 -0.780981,-1.11003 0,-0.17839 0.04757,-0.4559 l 0.09118,-0.55105 q 0.03964,-0.2339 0.03964,-0.36472 0,-0.35679 -0.245791,-0.49951 -0.241826,-0.14668 -0.832517,-0.14668 h -0.309221 v -0.58673 h 0.428152 q 0.812696,0 1.240848,0.29336 0.428152,0.29337 0.428152,0.84838 0,0.23786 -0.0555,0.53519 l -0.130824,0.70566 q -0.03171,0.15857 -0.03171,0.31318 0,0.72548 0.891984,0.72548 h 0.360757 v 0.58673 h -0.360757 q -0.891984,0 -0.891984,0.72944 0,0.15461 0.03171,0.31319 l 0.130824,0.70566 q 0.0555,0.29336 0.0555,0.53519 0,1.14173 -1.669,1.14173 z"
         id="path4749" />
    </g>
    <path
       d="m 52.429972,104.62592 v -0.56069 h 1.607138 v 0.56069 z"
       id="path1746"
       sodipodi:nodetypes="ccccc"
       style="font-weight:bold;font-size:5.29167px;font-family:Consolas;-inkscape-font-specification:'Consolas, Bold';opacity:1;mix-blend-mode:normal;fill:#e5c41a;fill-opacity:1;stroke:none;stroke-width:0.151394;stroke-dasharray:none;stroke-opacity:1"
       transform="matrix(1.0014599,0,0,0.98023826,-0.22129429,1.8778854)"
       inkscape:highlight-color="#21e416" />
  </g>
</svg>
